# Aspose.3D Wavefront OBJ Exporter
# Copyright 2004-2023 Aspose Pty Ltd.
# File created: 01/22/2024 08:01:40

mtllib material.lib
g Node #0

#
# object Node #0
#

v 0.09163141 -0.24377885 0.2500777
v 0.07213534 0.22040632 0.2500777
v -0.28863525 -0.024345841 0.2500777
v 0.14039029 0.14334312 0.2500777
v 0.11308108 0.19210191 0.2500777
v 0.15793324 0.016599733 0.2500777
v 0.15111506 0.090714574 0.2500777
v 0.14916173 -0.14917284 0.2500777
v 0.16183966 -0.07800629 0.2500777
v 0.123805664 -0.2018382 0.2500777
v -0.28863525 -0.024345841 0.1500777
v 0.07213534 0.22040632 0.1500777
v 0.09163141 -0.24377885 0.1500777
v 0.11308108 0.19210191 0.1500777
v 0.14039029 0.14334312 0.1500777
v 0.15111506 0.090714574 0.1500777
v 0.15793324 0.016599733 0.1500777
v 0.16183966 -0.07800629 0.1500777
v 0.14916173 -0.14917284 0.1500777
v 0.123805664 -0.2018382 0.1500777
v -0.28863525 -0.024345841 0.2500777
v 0.07213534 0.22040632 0.1500777
v -0.28863525 -0.024345841 0.1500777
v 0.07213534 0.22040632 0.2500777
v 0.07213534 0.22040632 0.2500777
v 0.11308108 0.19210191 0.1500777
v 0.07213534 0.22040632 0.1500777
v 0.11308108 0.19210191 0.2500777
v 0.14039029 0.14334312 0.1500777
v 0.14039029 0.14334312 0.2500777
v 0.15111506 0.090714574 0.1500777
v 0.15111506 0.090714574 0.2500777
v 0.15793324 0.016599733 0.1500777
v 0.15793324 0.016599733 0.2500777
v 0.16183966 -0.07800629 0.1500777
v 0.16183966 -0.07800629 0.2500777
v 0.14916173 -0.14917284 0.1500777
v 0.14916173 -0.14917284 0.2500777
v 0.123805664 -0.2018382 0.1500777
v 0.123805664 -0.2018382 0.2500777
v 0.09163141 -0.24377885 0.1500777
v 0.09163141 -0.24377885 0.2500777
v 0.09163141 -0.24377885 0.2500777
v -0.28863525 -0.024345841 0.1500777
v 0.09163141 -0.24377885 0.1500777
v -0.28863525 -0.024345841 0.2500777
# 46 vertices

vn 0 0 1
vn 0 0 1
vn 0 0 1
vn 0 0 1
vn 0 0 1
vn 0 0 1
vn 0 0 1
vn 0 0 1
vn 0 0 1
vn 0 0 1
vn 0 0 -1
vn 0 0 -1
vn 0 0 -1
vn 0 0 -1
vn 0 0 -1
vn 0 0 -1
vn 0 0 -1
vn 0 0 -1
vn 0 0 -1
vn 0 0 -1
vn -0.5498977 0.8352321 0
vn -0.5498977 0.8352321 0
vn -0.5498977 0.8352321 0
vn -0.5498977 0.8352321 0
vn 0.55710244 0.8304438 0
vn 0.729505 0.68397546 0
vn 0.55710244 0.8304438 0
vn 0.729505 0.68397546 0
vn 0.9338761 0.3575967 0
vn 0.9338761 0.3575967 0
vn 0.98865545 0.15020147 0
vn 0.98865545 0.15020147 0
vn 0.9976534 0.06846652 0
vn 0.9976534 0.06846652 0
vn 0.99758154 -0.069505766 0
vn 0.99758154 -0.069505766 0
vn 0.9488014 -0.31587335 0
vn 0.9488014 -0.31587335 0
vn 0.8445828 -0.53542495 0
vn 0.8445828 -0.53542495 0
vn 0.78449655 -0.62013316 0
vn 0.78449655 -0.62013316 0
vn -0.4886077 -0.8725036 0
vn -0.4886077 -0.8725036 0
vn -0.4886077 -0.8725036 0
vn -0.4886077 -0.8725036 0
# 46 vertex normals

usemtl mat_58196475
s 1
f 1//1 2//2 3//3
f 2//2 4//4 5//5
f 4//4 6//6 7//7
f 6//6 8//8 9//9
f 8//8 1//1 10//10
f 1//1 4//4 2//2
f 4//4 8//8 6//6
f 4//4 1//1 8//8
f 11//11 12//12 13//13
f 14//14 15//15 12//12
f 16//16 17//17 15//15
f 18//18 19//19 17//17
f 20//20 13//13 19//19
f 12//12 15//15 13//13
f 17//17 19//19 15//15
f 19//19 13//13 15//15
f 21//21 22//22 23//23
f 21//21 24//24 22//22
f 25//25 26//26 27//27
f 25//25 28//28 26//26
f 28//28 29//29 26//26
f 28//28 30//30 29//29
f 30//30 31//31 29//29
f 30//30 32//32 31//31
f 32//32 33//33 31//31
f 32//32 34//34 33//33
f 34//34 35//35 33//33
f 34//34 36//36 35//35
f 36//36 37//37 35//35
f 36//36 38//38 37//37
f 38//38 39//39 37//37
f 38//38 40//40 39//39
f 40//40 41//41 39//39
f 40//40 42//42 41//41
f 43//43 44//44 45//45
f 43//43 46//46 44//44
#36 polygons

