# Aspose.3D Wavefront OBJ Exporter
# Copyright 2004-2024 Aspose Pty Ltd.
# File created: 02/23/2024 04:33:10

mtllib material.lib
g Node #0

#
# object Node #0
#

v -0.054626405 -0.091642536 0.20007765
v -0.15598756 -0.091642536 0.098716505
v 0.046734743 -0.091642536 0.098716505
v -0.15598756 -0.091642536 0.098716505
v -0.054626405 0.113122255 0.20007765
v 0.046734743 -0.091642536 0.098716505
v -0.15598755 -0.091642536 0.30143884
v -0.15598755 -0.091642536 0.30143884
v -0.054626405 0.113122255 0.20007765
v -0.15598756 -0.091642536 0.098716505
v 0.046734784 -0.091642536 0.30143878
v 0.046734784 -0.091642536 0.30143878
v -0.054626405 0.113122255 0.20007765
v -0.15598755 -0.091642536 0.30143884
v 0.046734743 -0.091642536 0.098716505
v -0.054626405 0.113122255 0.20007765
v 0.046734784 -0.091642536 0.30143878
# 17 vertices

vn 0 -1 0
vn 0 -1 0
vn 0 -1 0
vn 0 0.7035537 -0.71064216
vn 0 0.7035537 -0.71064216
vn 0 0.7035537 -0.71064216
vn 0 -1 0
vn -0.71064216 0.7035536 5.3489618E-08
vn -0.71064216 0.7035536 5.3489618E-08
vn -0.7106422 0.7035536 5.348962E-08
vn 0 -1 0
vn 1.8721366E-07 0.7035536 0.71064216
vn 1.8721366E-07 0.7035536 0.71064216
vn 1.8721366E-07 0.7035536 0.71064216
vn 0.7106421 0.7035537 -1.3372407E-07
vn 0.7106421 0.7035537 -1.3372407E-07
vn 0.7106421 0.7035537 -1.3372407E-07
# 17 vertex normals

usemtl mat_64909776
s 1
f 1//1 2//2 3//3
f 4//4 5//5 6//6
f 1//1 7//7 2//2
f 8//8 9//9 10//10
f 1//1 11//11 7//7
f 12//12 13//13 14//14
f 1//1 3//3 11//11
f 15//15 16//16 17//17
#8 polygons

